<svg xmlns="http://www.w3.org/2000/svg" version="1.1" xmlns:xlink="http://www.w3.org/1999/xlink" xmlns:svgjs="http://svgjs.com/svgjs" width="1920" height="1080" preserveAspectRatio="none" viewBox="0 0 1920 1080"><g mask="url(&quot;#SvgjsMask2284&quot;)" fill="none"><rect width="1920" height="1080" x="0" y="0" fill="url(#SvgjsLinearGradient2285)"></rect><g mask="url(&quot;#SvgjsMask2287&quot;)"><path d="M150 550L170 530L190 530L210 530L230 530L250 530L270 530M310 550L330 530M710 530L730 510L750 490L770 490L790 490L810 490M810 510L830 530L850 550M290 550L310 570L330 570L350 570M450 550L470 530L490 530L510 530L530 530L550 510L570 490L590 490L610 490L630 490L650 490L670 490L690 490L710 490L730 490M890 530L910 530L930 530M190 550L210 570M630 530L650 510M530 550L550 550L570 550L590 550M670 530L690 510L710 510M-10 550L10 550L30 550L50 550L70 550L90 550L110 550L130 550L150 550L170 550L190 550L210 550L230 550L250 550L270 550L290 550L310 550L330 550L350 550L370 550L390 550L410 550L430 550L450 550L470 550L490 550L510 550L530 550L550 530L570 530L590 530L610 530L630 530L650 530L670 530L690 530L710 530L730 530L750 510L770 510L790 510L810 510L830 510L850 530L870 530L890 530L910 550" stroke="url(#SvgjsLinearGradient2286)" stroke-width="3.33"></path><path d="M905 550 a5 5 0 1 0 10 0 a5 5 0 1 0 -10 0zM265 530 a5 5 0 1 0 10 0 a5 5 0 1 0 -10 0zM325 530 a5 5 0 1 0 10 0 a5 5 0 1 0 -10 0zM805 490 a5 5 0 1 0 10 0 a5 5 0 1 0 -10 0zM845 550 a5 5 0 1 0 10 0 a5 5 0 1 0 -10 0zM345 570 a5 5 0 1 0 10 0 a5 5 0 1 0 -10 0zM725 490 a5 5 0 1 0 10 0 a5 5 0 1 0 -10 0zM925 530 a5 5 0 1 0 10 0 a5 5 0 1 0 -10 0zM205 570 a5 5 0 1 0 10 0 a5 5 0 1 0 -10 0zM645 510 a5 5 0 1 0 10 0 a5 5 0 1 0 -10 0zM585 550 a5 5 0 1 0 10 0 a5 5 0 1 0 -10 0zM705 510 a5 5 0 1 0 10 0 a5 5 0 1 0 -10 0z" fill="url(#SvgjsLinearGradient2286)"></path><path d="M50 530L70 510L90 510M30 530L50 510M10 530L30 510M-10 530L10 530L30 530L50 530L70 530L90 530L110 530L130 530" stroke="url(#SvgjsLinearGradient2286)" stroke-width="3.33"></path><path d="M125 530 a5 5 0 1 0 10 0 a5 5 0 1 0 -10 0zM85 510 a5 5 0 1 0 10 0 a5 5 0 1 0 -10 0zM45 510 a5 5 0 1 0 10 0 a5 5 0 1 0 -10 0zM25 510 a5 5 0 1 0 10 0 a5 5 0 1 0 -10 0z" fill="url(#SvgjsLinearGradient2286)"></path><path d="M50 570L70 590L90 590M-10 570L10 570L30 570L50 570L70 570L90 570L110 570L130 570L150 570" stroke="url(#SvgjsLinearGradient2286)" stroke-width="3.33"></path><path d="M145 570 a5 5 0 1 0 10 0 a5 5 0 1 0 -10 0zM85 590 a5 5 0 1 0 10 0 a5 5 0 1 0 -10 0z" fill="url(#SvgjsLinearGradient2286)"></path><path d="M490 450L510 430M390 450L410 470L430 470L450 470M750 370L770 390L790 390L810 390L830 390L850 390M70 490L90 470L110 470L130 470L150 470L170 470L190 470L210 470M230 470L250 490L270 490L290 490L310 490L330 490M130 490L150 510M450 450L470 430M570 410L590 430M470 450L490 470L510 490L530 490M730 370L750 390L770 410L790 410L810 410L830 410L850 410L870 410L890 410L910 410M-10 510L10 490L30 490L50 490L70 490L90 490L110 490L130 490L150 490L170 490L190 490L210 490L230 470L250 470L270 470L290 470L310 450L330 450L350 450L370 450L390 450L410 450L430 450L450 450L470 450L490 450L510 450L530 430L550 430L570 410L590 410L610 410L630 410L650 390L670 370L690 370L710 370L730 370L750 370L770 370L790 370L810 370" stroke="url(#SvgjsLinearGradient2286)" stroke-width="3.33"></path><path d="M805 370 a5 5 0 1 0 10 0 a5 5 0 1 0 -10 0zM505 430 a5 5 0 1 0 10 0 a5 5 0 1 0 -10 0zM445 470 a5 5 0 1 0 10 0 a5 5 0 1 0 -10 0zM845 390 a5 5 0 1 0 10 0 a5 5 0 1 0 -10 0zM205 470 a5 5 0 1 0 10 0 a5 5 0 1 0 -10 0zM325 490 a5 5 0 1 0 10 0 a5 5 0 1 0 -10 0zM145 510 a5 5 0 1 0 10 0 a5 5 0 1 0 -10 0zM465 430 a5 5 0 1 0 10 0 a5 5 0 1 0 -10 0zM585 430 a5 5 0 1 0 10 0 a5 5 0 1 0 -10 0zM525 490 a5 5 0 1 0 10 0 a5 5 0 1 0 -10 0zM905 410 a5 5 0 1 0 10 0 a5 5 0 1 0 -10 0z" fill="url(#SvgjsLinearGradient2286)"></path><path d="M150 590L170 610L190 610L210 610L230 610M310 590L330 610L350 610L370 610M510 570L530 590L550 590L570 590L590 590L610 610L630 610L650 610L670 610L690 590L710 590M370 590L390 570L410 570L430 570L450 570L470 570M410 590L430 610M30 590L50 590M130 590L150 610M470 590L490 590L510 590L530 610L550 610M-10 590L10 590L30 590L50 610L70 610L90 610L110 590L130 590L150 590L170 590L190 590L210 590L230 590L250 590L270 590L290 590L310 590L330 590L350 590L370 590L390 590L410 590L430 590L450 590L470 590L490 570L510 570L530 570L550 570L570 570L590 570L610 590" stroke="url(#SvgjsLinearGradient2286)" stroke-width="3.33"></path><path d="M605 590 a5 5 0 1 0 10 0 a5 5 0 1 0 -10 0zM225 610 a5 5 0 1 0 10 0 a5 5 0 1 0 -10 0zM365 610 a5 5 0 1 0 10 0 a5 5 0 1 0 -10 0zM705 590 a5 5 0 1 0 10 0 a5 5 0 1 0 -10 0zM465 570 a5 5 0 1 0 10 0 a5 5 0 1 0 -10 0zM425 610 a5 5 0 1 0 10 0 a5 5 0 1 0 -10 0zM45 590 a5 5 0 1 0 10 0 a5 5 0 1 0 -10 0zM145 610 a5 5 0 1 0 10 0 a5 5 0 1 0 -10 0zM545 610 a5 5 0 1 0 10 0 a5 5 0 1 0 -10 0z" fill="url(#SvgjsLinearGradient2286)"></path><path d="M770 350L790 330L810 330L830 310M170 450L190 430L210 430L230 430L250 430M850 350L870 330L890 330L910 330L930 330M710 350L730 330M150 450L170 430M130 450L150 430M270 450L290 430M110 450L130 430M570 390L590 370L610 370M50 470L70 470M90 450L110 430M-10 490L10 470L30 470L50 470L70 450L90 450L110 450L130 450L150 450L170 450L190 450L210 450L230 450L250 450L270 450L290 450L310 430L330 430L350 430L370 430L390 430L410 430L430 430L450 410L470 410L490 410L510 410L530 410L550 410L570 390L590 390L610 390L630 390L650 370L670 350L690 350L710 350L730 350L750 350L770 350L790 350L810 350L830 350L850 350L870 350" stroke="url(#SvgjsLinearGradient2286)" stroke-width="3.33"></path><path d="M865 350 a5 5 0 1 0 10 0 a5 5 0 1 0 -10 0zM825 310 a5 5 0 1 0 10 0 a5 5 0 1 0 -10 0zM245 430 a5 5 0 1 0 10 0 a5 5 0 1 0 -10 0zM925 330 a5 5 0 1 0 10 0 a5 5 0 1 0 -10 0zM725 330 a5 5 0 1 0 10 0 a5 5 0 1 0 -10 0zM165 430 a5 5 0 1 0 10 0 a5 5 0 1 0 -10 0zM145 430 a5 5 0 1 0 10 0 a5 5 0 1 0 -10 0zM285 430 a5 5 0 1 0 10 0 a5 5 0 1 0 -10 0zM125 430 a5 5 0 1 0 10 0 a5 5 0 1 0 -10 0zM605 370 a5 5 0 1 0 10 0 a5 5 0 1 0 -10 0zM65 470 a5 5 0 1 0 10 0 a5 5 0 1 0 -10 0zM105 430 a5 5 0 1 0 10 0 a5 5 0 1 0 -10 0z" fill="url(#SvgjsLinearGradient2286)"></path><path d="M250 630L270 650L290 650L310 650L330 650M210 630L230 650L250 650M550 630L570 650L590 650L610 650L630 650L650 650M150 630L170 650L190 650L210 650L230 670M110 630L130 650L150 650L170 670L190 670M530 630L550 650M570 630L590 610M290 630L310 610M470 630L490 650L510 650L530 650L550 670M-10 610L10 610L30 610L50 630L70 630L90 630L110 630L130 630L150 630L170 630L190 630L210 630L230 630L250 630L270 630L290 630L310 630L330 630L350 630L370 630L390 630L410 630L430 630L450 630L470 630L490 630L510 630L530 630L550 630L570 630L590 630L610 630L630 630L650 630L670 630L690 630" stroke="url(#SvgjsLinearGradient2286)" stroke-width="3.33"></path><path d="M685 630 a5 5 0 1 0 10 0 a5 5 0 1 0 -10 0zM325 650 a5 5 0 1 0 10 0 a5 5 0 1 0 -10 0zM245 650 a5 5 0 1 0 10 0 a5 5 0 1 0 -10 0zM645 650 a5 5 0 1 0 10 0 a5 5 0 1 0 -10 0zM225 670 a5 5 0 1 0 10 0 a5 5 0 1 0 -10 0zM185 670 a5 5 0 1 0 10 0 a5 5 0 1 0 -10 0zM545 650 a5 5 0 1 0 10 0 a5 5 0 1 0 -10 0zM585 610 a5 5 0 1 0 10 0 a5 5 0 1 0 -10 0zM305 610 a5 5 0 1 0 10 0 a5 5 0 1 0 -10 0zM545 670 a5 5 0 1 0 10 0 a5 5 0 1 0 -10 0z" fill="url(#SvgjsLinearGradient2286)"></path><path d="M70 430L90 430M350 410L370 390L390 390L410 390L430 390M-10 470L10 450L30 450L50 450L70 430L90 410L110 410L130 410L150 410L170 410L190 410L210 410L230 410L250 410L270 410L290 410L310 410L330 410L350 410L370 410L390 410L410 410L430 410L450 390L470 390L490 390" stroke="url(#SvgjsLinearGradient2286)" stroke-width="3.33"></path><path d="M485 390 a5 5 0 1 0 10 0 a5 5 0 1 0 -10 0zM85 430 a5 5 0 1 0 10 0 a5 5 0 1 0 -10 0zM425 390 a5 5 0 1 0 10 0 a5 5 0 1 0 -10 0z" fill="url(#SvgjsLinearGradient2286)"></path><path d="M510 690L530 670M130 690L150 670M230 690L250 690L270 690L290 690M650 670L670 670M330 670L350 670L370 670L390 670L410 670L430 670L450 690M470 690L490 670L510 670M750 630L770 610L790 610L810 610L830 610L850 610L870 610L890 610M790 630L810 650L830 650L850 650L870 650L890 650L910 670L930 670M90 650L110 650M710 650L730 670L750 670M450 670L470 670M590 670L610 690L630 690L650 690M-10 630L10 630L30 630L50 650L70 650L90 650L110 670L130 690L150 690L170 690L190 690L210 690L230 690L250 670L270 670L290 670L310 670L330 670L350 650L370 650L390 650L410 650L430 650L450 670L470 690L490 690L510 690L530 690L550 690L570 690L590 670L610 670L630 670L650 670L670 650L690 650L710 650L730 650L750 630L770 630L790 630L810 630L830 630L850 630L870 630L890 630L910 650L930 650" stroke="url(#SvgjsLinearGradient2286)" stroke-width="3.33"></path><path d="M925 650 a5 5 0 1 0 10 0 a5 5 0 1 0 -10 0zM525 670 a5 5 0 1 0 10 0 a5 5 0 1 0 -10 0zM145 670 a5 5 0 1 0 10 0 a5 5 0 1 0 -10 0zM285 690 a5 5 0 1 0 10 0 a5 5 0 1 0 -10 0zM665 670 a5 5 0 1 0 10 0 a5 5 0 1 0 -10 0zM445 690 a5 5 0 1 0 10 0 a5 5 0 1 0 -10 0zM505 670 a5 5 0 1 0 10 0 a5 5 0 1 0 -10 0zM885 610 a5 5 0 1 0 10 0 a5 5 0 1 0 -10 0zM925 670 a5 5 0 1 0 10 0 a5 5 0 1 0 -10 0zM105 650 a5 5 0 1 0 10 0 a5 5 0 1 0 -10 0zM745 670 a5 5 0 1 0 10 0 a5 5 0 1 0 -10 0zM465 670 a5 5 0 1 0 10 0 a5 5 0 1 0 -10 0zM645 690 a5 5 0 1 0 10 0 a5 5 0 1 0 -10 0z" fill="url(#SvgjsLinearGradient2286)"></path><path d="M-10 450L10 430L30 430L50 430L70 410L90 390L110 390L130 390L150 390L170 390L190 390L210 390L230 390L250 390L270 390L290 390L310 390L330 390" stroke="url(#SvgjsLinearGradient2286)" stroke-width="3.33"></path><path d="M325 390 a5 5 0 1 0 10 0 a5 5 0 1 0 -10 0z" fill="url(#SvgjsLinearGradient2286)"></path><path d="M370 710L390 690L410 690L430 690M510 710L530 730L550 730L570 730L590 730L610 730L630 730L650 730L670 730L690 730M670 690L690 710L710 710L730 710L750 710L770 710L790 710L810 710L830 710L850 710L870 710L890 710L910 710L930 710M770 690L790 670L810 670L830 670L850 670L870 690L890 690L910 690L930 690M330 710L350 690L370 690M430 710L450 730L470 730L490 730L510 730M650 710L670 710M310 710L330 690M-10 650L10 650L30 650L50 670L70 670L90 670L110 690L130 710L150 710L170 710L190 710L210 710L230 710L250 710L270 710L290 710L310 710L330 710L350 710L370 710L390 710L410 710L430 710L450 710L470 710L490 710L510 710L530 710L550 710L570 710L590 710L610 710L630 710L650 710L670 690L690 690L710 690L730 690L750 690L770 690L790 690L810 690L830 690" stroke="url(#SvgjsLinearGradient2286)" stroke-width="3.33"></path><path d="M825 690 a5 5 0 1 0 10 0 a5 5 0 1 0 -10 0zM425 690 a5 5 0 1 0 10 0 a5 5 0 1 0 -10 0zM685 730 a5 5 0 1 0 10 0 a5 5 0 1 0 -10 0zM925 710 a5 5 0 1 0 10 0 a5 5 0 1 0 -10 0zM925 690 a5 5 0 1 0 10 0 a5 5 0 1 0 -10 0zM365 690 a5 5 0 1 0 10 0 a5 5 0 1 0 -10 0zM505 730 a5 5 0 1 0 10 0 a5 5 0 1 0 -10 0zM665 710 a5 5 0 1 0 10 0 a5 5 0 1 0 -10 0zM325 690 a5 5 0 1 0 10 0 a5 5 0 1 0 -10 0z" fill="url(#SvgjsLinearGradient2286)"></path><path d="M490 370L510 370M-10 430L10 410L30 410L50 410L70 390L90 370L110 370L130 370L150 370L170 370L190 370L210 370L230 370L250 370L270 370L290 370L310 370L330 370L350 370L370 370L390 370L410 370L430 370L450 370L470 370L490 370L510 350L530 350" stroke="url(#SvgjsLinearGradient2286)" stroke-width="3.33"></path><path d="M525 350 a5 5 0 1 0 10 0 a5 5 0 1 0 -10 0zM505 370 a5 5 0 1 0 10 0 a5 5 0 1 0 -10 0z" fill="url(#SvgjsLinearGradient2286)"></path><path d="M530 750L550 770L570 770L590 770M10 670L30 690M650 750L670 750L690 750L710 750L730 750M410 730L430 730M670 770L690 790L710 790L730 790L750 790L770 790L790 770M250 730L270 750M430 750L450 770M630 750L650 770M-10 670L10 670L30 670L50 690L70 690L90 690L110 710L130 730L150 730L170 730L190 730L210 730L230 730L250 730L270 730L290 730L310 730L330 730L350 730L370 730L390 730L410 730L430 750L450 750L470 750L490 750L510 750L530 750L550 750L570 750L590 750L610 750L630 750L650 750L670 770L690 770L710 770" stroke="url(#SvgjsLinearGradient2286)" stroke-width="3.33"></path><path d="M705 770 a5 5 0 1 0 10 0 a5 5 0 1 0 -10 0zM585 770 a5 5 0 1 0 10 0 a5 5 0 1 0 -10 0zM25 690 a5 5 0 1 0 10 0 a5 5 0 1 0 -10 0zM725 750 a5 5 0 1 0 10 0 a5 5 0 1 0 -10 0zM425 730 a5 5 0 1 0 10 0 a5 5 0 1 0 -10 0zM785 770 a5 5 0 1 0 10 0 a5 5 0 1 0 -10 0zM265 750 a5 5 0 1 0 10 0 a5 5 0 1 0 -10 0zM445 770 a5 5 0 1 0 10 0 a5 5 0 1 0 -10 0zM645 770 a5 5 0 1 0 10 0 a5 5 0 1 0 -10 0z" fill="url(#SvgjsLinearGradient2286)"></path><path d="M330 350L350 330M290 350L310 330L330 330M370 350L390 330L410 330L430 330L450 330L470 330L490 330M-10 410L10 390L30 390L50 390L70 370L90 350L110 350L130 350L150 350L170 350L190 350L210 350L230 350L250 350L270 350L290 350L310 350L330 350L350 350L370 350L390 350L410 350L430 350L450 350L470 350L490 350L510 330L530 330" stroke="url(#SvgjsLinearGradient2286)" stroke-width="3.33"></path><path d="M525 330 a5 5 0 1 0 10 0 a5 5 0 1 0 -10 0zM345 330 a5 5 0 1 0 10 0 a5 5 0 1 0 -10 0zM325 330 a5 5 0 1 0 10 0 a5 5 0 1 0 -10 0zM485 330 a5 5 0 1 0 10 0 a5 5 0 1 0 -10 0z" fill="url(#SvgjsLinearGradient2286)"></path><path d="M330 750L350 770L370 770L390 770L410 770M310 750L330 770M-10 690L10 710L30 710L50 710L70 710L90 710L110 730L130 750L150 750L170 750L190 750L210 750L230 750L250 770L270 770L290 750L310 750L330 750L350 750L370 750L390 750" stroke="url(#SvgjsLinearGradient2286)" stroke-width="3.33"></path><path d="M385 750 a5 5 0 1 0 10 0 a5 5 0 1 0 -10 0zM405 770 a5 5 0 1 0 10 0 a5 5 0 1 0 -10 0zM325 770 a5 5 0 1 0 10 0 a5 5 0 1 0 -10 0z" fill="url(#SvgjsLinearGradient2286)"></path><path d="M570 330L590 350L610 350L630 350L650 350L670 330L690 330L710 330M490 310L510 290L530 290L550 290L570 290L590 290L610 290L630 290M590 330L610 310L630 310L650 310L670 310L690 310L710 310L730 310M30 370L50 370M550 330L570 310L590 310M430 310L450 290M330 310L350 290L370 290M310 310L330 290M-10 390L10 370L30 370L50 350L70 350L90 330L110 330L130 330L150 330L170 330L190 330L210 330L230 330L250 330L270 330L290 310L310 310L330 310L350 310L370 310L390 310L410 310L430 310L450 310L470 310L490 310L510 310L530 310L550 330L570 330L590 330L610 330" stroke="url(#SvgjsLinearGradient2286)" stroke-width="3.33"></path><path d="M605 330 a5 5 0 1 0 10 0 a5 5 0 1 0 -10 0zM705 330 a5 5 0 1 0 10 0 a5 5 0 1 0 -10 0zM625 290 a5 5 0 1 0 10 0 a5 5 0 1 0 -10 0zM725 310 a5 5 0 1 0 10 0 a5 5 0 1 0 -10 0zM45 370 a5 5 0 1 0 10 0 a5 5 0 1 0 -10 0zM585 310 a5 5 0 1 0 10 0 a5 5 0 1 0 -10 0zM445 290 a5 5 0 1 0 10 0 a5 5 0 1 0 -10 0zM365 290 a5 5 0 1 0 10 0 a5 5 0 1 0 -10 0zM325 290 a5 5 0 1 0 10 0 a5 5 0 1 0 -10 0z" fill="url(#SvgjsLinearGradient2286)"></path><path d="M70 730L90 730M290 810L310 790M50 730L70 750M430 790L450 810L470 810L490 810L510 810L530 810L550 810L570 810L590 790L610 790M410 790L430 810M470 770L490 790M-10 710L10 730L30 730L50 730L70 730L90 750L110 750L130 770L150 770L170 770L190 770L210 770L230 770L250 790L270 790L290 810L310 810L330 810L350 790L370 790L390 790L410 790L430 790L450 790L470 770L490 770L510 770" stroke="url(#SvgjsLinearGradient2286)" stroke-width="3.33"></path><path d="M505 770 a5 5 0 1 0 10 0 a5 5 0 1 0 -10 0zM85 730 a5 5 0 1 0 10 0 a5 5 0 1 0 -10 0zM305 790 a5 5 0 1 0 10 0 a5 5 0 1 0 -10 0zM65 750 a5 5 0 1 0 10 0 a5 5 0 1 0 -10 0zM605 790 a5 5 0 1 0 10 0 a5 5 0 1 0 -10 0zM425 810 a5 5 0 1 0 10 0 a5 5 0 1 0 -10 0zM485 790 a5 5 0 1 0 10 0 a5 5 0 1 0 -10 0z" fill="url(#SvgjsLinearGradient2286)"></path><path d="M130 310L150 290L170 290L190 290L210 290M370 270L390 270L410 270L430 270L450 270M270 290L290 270M250 310L270 310M290 290L310 290M-10 370L10 350L30 350L50 330L70 330L90 310L110 310L130 310L150 310L170 310L190 310L210 310L230 310L250 310L270 290L290 290L310 270L330 270L350 270L370 270L390 250" stroke="url(#SvgjsLinearGradient2286)" stroke-width="3.33"></path><path d="M385 250 a5 5 0 1 0 10 0 a5 5 0 1 0 -10 0zM205 290 a5 5 0 1 0 10 0 a5 5 0 1 0 -10 0zM445 270 a5 5 0 1 0 10 0 a5 5 0 1 0 -10 0zM285 270 a5 5 0 1 0 10 0 a5 5 0 1 0 -10 0zM265 310 a5 5 0 1 0 10 0 a5 5 0 1 0 -10 0zM305 290 a5 5 0 1 0 10 0 a5 5 0 1 0 -10 0z" fill="url(#SvgjsLinearGradient2286)"></path><path d="M350 830L370 810L390 810M10 750L30 750L50 750M-10 730L10 750L30 770L50 770L70 770L90 770L110 770L130 790L150 790L170 790L190 790L210 790L230 790L250 810L270 810L290 830L310 830L330 830L350 830L370 830L390 830L410 830L430 830L450 830" stroke="url(#SvgjsLinearGradient2286)" stroke-width="3.33"></path><path d="M445 830 a5 5 0 1 0 10 0 a5 5 0 1 0 -10 0zM385 810 a5 5 0 1 0 10 0 a5 5 0 1 0 -10 0zM45 750 a5 5 0 1 0 10 0 a5 5 0 1 0 -10 0z" fill="url(#SvgjsLinearGradient2286)"></path><path d="M150 810L170 830M510 850L530 830L550 830M490 850L510 830M470 850L490 830M210 810L230 830M190 810L210 830M-10 750L10 770L30 790L50 790L70 790L90 790L110 790L130 810L150 810L170 810L190 810L210 810L230 810L250 830L270 830L290 850L310 850L330 850L350 850L370 850L390 850L410 850L430 850L450 850L470 850L490 850L510 850L530 850" stroke="url(#SvgjsLinearGradient2286)" stroke-width="3.33"></path><path d="M525 850 a5 5 0 1 0 10 0 a5 5 0 1 0 -10 0zM165 830 a5 5 0 1 0 10 0 a5 5 0 1 0 -10 0zM545 830 a5 5 0 1 0 10 0 a5 5 0 1 0 -10 0zM505 830 a5 5 0 1 0 10 0 a5 5 0 1 0 -10 0zM485 830 a5 5 0 1 0 10 0 a5 5 0 1 0 -10 0zM225 830 a5 5 0 1 0 10 0 a5 5 0 1 0 -10 0zM205 830 a5 5 0 1 0 10 0 a5 5 0 1 0 -10 0z" fill="url(#SvgjsLinearGradient2286)"></path><path d="M90 290L110 270L130 250L150 250M50 310L70 310M110 290L130 290M-10 330L10 330L30 330L50 310L70 290L90 290L110 290L130 270L150 270L170 270L190 270" stroke="url(#SvgjsLinearGradient2286)" stroke-width="3.33"></path><path d="M185 270 a5 5 0 1 0 10 0 a5 5 0 1 0 -10 0zM145 250 a5 5 0 1 0 10 0 a5 5 0 1 0 -10 0zM65 310 a5 5 0 1 0 10 0 a5 5 0 1 0 -10 0zM125 290 a5 5 0 1 0 10 0 a5 5 0 1 0 -10 0z" fill="url(#SvgjsLinearGradient2286)"></path><path d="M530 870L550 890L570 890L590 910L610 910L630 910M490 870L510 890L530 890M390 870L410 890L430 890L450 890M550 870L570 850L590 850L610 850M570 870L590 870L610 870L630 870M350 870L370 890L390 890L410 910L430 910M130 830L150 830M470 870L490 890M-10 770L10 790L30 810L50 810L70 810L90 810L110 810L130 830L150 850L170 850L190 850L210 850L230 850L250 850L270 850L290 870L310 870L330 870L350 870L370 870L390 870L410 870L430 870L450 870L470 870L490 870L510 870L530 870L550 870L570 870L590 890L610 890L630 890" stroke="url(#SvgjsLinearGradient2286)" stroke-width="3.33"></path><path d="M625 890 a5 5 0 1 0 10 0 a5 5 0 1 0 -10 0zM625 910 a5 5 0 1 0 10 0 a5 5 0 1 0 -10 0zM525 890 a5 5 0 1 0 10 0 a5 5 0 1 0 -10 0zM445 890 a5 5 0 1 0 10 0 a5 5 0 1 0 -10 0zM605 850 a5 5 0 1 0 10 0 a5 5 0 1 0 -10 0zM625 870 a5 5 0 1 0 10 0 a5 5 0 1 0 -10 0zM425 910 a5 5 0 1 0 10 0 a5 5 0 1 0 -10 0zM145 830 a5 5 0 1 0 10 0 a5 5 0 1 0 -10 0zM485 890 a5 5 0 1 0 10 0 a5 5 0 1 0 -10 0z" fill="url(#SvgjsLinearGradient2286)"></path><path d="M310 250L330 230L350 230L370 230L390 210L410 210L430 210M150 230L170 210L190 210L210 210L230 210L250 210L270 210L290 210M650 250L670 270M250 250L270 230L290 230L310 230L330 210L350 210L370 210L390 190L410 190M490 250L510 270M570 250L590 270L610 270M510 250L530 230L550 230M210 250L230 270M170 250L190 230L210 230L230 230L250 230M-10 310L10 310L30 310L50 290L70 270L90 250L110 230L130 230L150 230L170 250L190 250L210 250L230 250L250 250L270 250L290 250L310 250L330 250L350 250L370 250L390 230L410 230L430 230L450 230L470 230L490 250L510 250L530 250L550 250L570 250L590 250L610 250L630 250L650 250L670 250L690 250L710 250" stroke="url(#SvgjsLinearGradient2286)" stroke-width="3.33"></path><path d="M705 250 a5 5 0 1 0 10 0 a5 5 0 1 0 -10 0zM425 210 a5 5 0 1 0 10 0 a5 5 0 1 0 -10 0zM285 210 a5 5 0 1 0 10 0 a5 5 0 1 0 -10 0zM665 270 a5 5 0 1 0 10 0 a5 5 0 1 0 -10 0zM405 190 a5 5 0 1 0 10 0 a5 5 0 1 0 -10 0zM505 270 a5 5 0 1 0 10 0 a5 5 0 1 0 -10 0zM605 270 a5 5 0 1 0 10 0 a5 5 0 1 0 -10 0zM545 230 a5 5 0 1 0 10 0 a5 5 0 1 0 -10 0zM225 270 a5 5 0 1 0 10 0 a5 5 0 1 0 -10 0zM245 230 a5 5 0 1 0 10 0 a5 5 0 1 0 -10 0z" fill="url(#SvgjsLinearGradient2286)"></path><path d="M190 870L210 890L230 890M90 830L110 830M110 850L130 870L150 890M70 830L90 850M-10 790L10 810L30 830L50 830L70 830L90 830L110 850L130 850L150 870L170 870L190 870L210 870L230 870L250 870L270 870L290 890L310 890L330 890" stroke="url(#SvgjsLinearGradient2286)" stroke-width="3.33"></path><path d="M325 890 a5 5 0 1 0 10 0 a5 5 0 1 0 -10 0zM225 890 a5 5 0 1 0 10 0 a5 5 0 1 0 -10 0zM105 830 a5 5 0 1 0 10 0 a5 5 0 1 0 -10 0zM145 890 a5 5 0 1 0 10 0 a5 5 0 1 0 -10 0zM85 850 a5 5 0 1 0 10 0 a5 5 0 1 0 -10 0z" fill="url(#SvgjsLinearGradient2286)"></path><path d="M10 290L30 270L50 270L70 250M-10 290L10 290L30 290" stroke="url(#SvgjsLinearGradient2286)" stroke-width="3.33"></path><path d="M25 290 a5 5 0 1 0 10 0 a5 5 0 1 0 -10 0zM65 250 a5 5 0 1 0 10 0 a5 5 0 1 0 -10 0z" fill="url(#SvgjsLinearGradient2286)"></path></g></g><defs><mask id="SvgjsMask2284"><rect width="1920" height="1080" fill="#ffffff"></rect></mask><linearGradient x1="0%" y1="50%" x2="100%" y2="50%" gradientUnits="userSpaceOnUse" id="SvgjsLinearGradient2285"><stop stop-color="#0e2a47" offset="0"></stop><stop stop-color="rgba(0, 80, 124, 1)" offset="1"></stop></linearGradient><linearGradient x1="960" y1="540" x2="0" y2="540" gradientUnits="userSpaceOnUse" id="SvgjsLinearGradient2286"><stop stop-color="#3a7cc3" offset="0"></stop><stop stop-color="#dd1133" offset="1"></stop></linearGradient><mask id="SvgjsMask2287"><rect width="1920" height="1080" fill="white"></rect><path d="M907.5 550 a2.5 2.5 0 1 0 5 0 a2.5 2.5 0 1 0 -5 0zM267.5 530 a2.5 2.5 0 1 0 5 0 a2.5 2.5 0 1 0 -5 0zM327.5 530 a2.5 2.5 0 1 0 5 0 a2.5 2.5 0 1 0 -5 0zM807.5 490 a2.5 2.5 0 1 0 5 0 a2.5 2.5 0 1 0 -5 0zM847.5 550 a2.5 2.5 0 1 0 5 0 a2.5 2.5 0 1 0 -5 0zM347.5 570 a2.5 2.5 0 1 0 5 0 a2.5 2.5 0 1 0 -5 0zM727.5 490 a2.5 2.5 0 1 0 5 0 a2.5 2.5 0 1 0 -5 0zM927.5 530 a2.5 2.5 0 1 0 5 0 a2.5 2.5 0 1 0 -5 0zM207.5 570 a2.5 2.5 0 1 0 5 0 a2.5 2.5 0 1 0 -5 0zM647.5 510 a2.5 2.5 0 1 0 5 0 a2.5 2.5 0 1 0 -5 0zM587.5 550 a2.5 2.5 0 1 0 5 0 a2.5 2.5 0 1 0 -5 0zM707.5 510 a2.5 2.5 0 1 0 5 0 a2.5 2.5 0 1 0 -5 0z" fill="black"></path><path d="M127.5 530 a2.5 2.5 0 1 0 5 0 a2.5 2.5 0 1 0 -5 0zM87.5 510 a2.5 2.5 0 1 0 5 0 a2.5 2.5 0 1 0 -5 0zM47.5 510 a2.5 2.5 0 1 0 5 0 a2.5 2.5 0 1 0 -5 0zM27.5 510 a2.5 2.5 0 1 0 5 0 a2.5 2.5 0 1 0 -5 0z" fill="black"></path><path d="M147.5 570 a2.5 2.5 0 1 0 5 0 a2.5 2.5 0 1 0 -5 0zM87.5 590 a2.5 2.5 0 1 0 5 0 a2.5 2.5 0 1 0 -5 0z" fill="black"></path><path d="M807.5 370 a2.5 2.5 0 1 0 5 0 a2.5 2.5 0 1 0 -5 0zM507.5 430 a2.5 2.5 0 1 0 5 0 a2.5 2.5 0 1 0 -5 0zM447.5 470 a2.5 2.5 0 1 0 5 0 a2.5 2.5 0 1 0 -5 0zM847.5 390 a2.5 2.5 0 1 0 5 0 a2.5 2.5 0 1 0 -5 0zM207.5 470 a2.5 2.5 0 1 0 5 0 a2.5 2.5 0 1 0 -5 0zM327.5 490 a2.5 2.5 0 1 0 5 0 a2.5 2.5 0 1 0 -5 0zM147.5 510 a2.5 2.5 0 1 0 5 0 a2.5 2.5 0 1 0 -5 0zM467.5 430 a2.5 2.5 0 1 0 5 0 a2.5 2.5 0 1 0 -5 0zM587.5 430 a2.5 2.5 0 1 0 5 0 a2.5 2.5 0 1 0 -5 0zM527.5 490 a2.5 2.5 0 1 0 5 0 a2.5 2.5 0 1 0 -5 0zM907.5 410 a2.5 2.5 0 1 0 5 0 a2.5 2.5 0 1 0 -5 0z" fill="black"></path><path d="M607.5 590 a2.5 2.5 0 1 0 5 0 a2.5 2.5 0 1 0 -5 0zM227.5 610 a2.5 2.5 0 1 0 5 0 a2.5 2.5 0 1 0 -5 0zM367.5 610 a2.5 2.5 0 1 0 5 0 a2.5 2.5 0 1 0 -5 0zM707.5 590 a2.5 2.5 0 1 0 5 0 a2.5 2.5 0 1 0 -5 0zM467.5 570 a2.5 2.5 0 1 0 5 0 a2.5 2.5 0 1 0 -5 0zM427.5 610 a2.5 2.5 0 1 0 5 0 a2.5 2.5 0 1 0 -5 0zM47.5 590 a2.5 2.5 0 1 0 5 0 a2.5 2.5 0 1 0 -5 0zM147.5 610 a2.5 2.5 0 1 0 5 0 a2.5 2.5 0 1 0 -5 0zM547.5 610 a2.5 2.5 0 1 0 5 0 a2.5 2.5 0 1 0 -5 0z" fill="black"></path><path d="M867.5 350 a2.5 2.5 0 1 0 5 0 a2.5 2.5 0 1 0 -5 0zM827.5 310 a2.5 2.5 0 1 0 5 0 a2.5 2.5 0 1 0 -5 0zM247.5 430 a2.5 2.5 0 1 0 5 0 a2.5 2.5 0 1 0 -5 0zM927.5 330 a2.5 2.5 0 1 0 5 0 a2.5 2.5 0 1 0 -5 0zM727.5 330 a2.5 2.5 0 1 0 5 0 a2.5 2.5 0 1 0 -5 0zM167.5 430 a2.5 2.5 0 1 0 5 0 a2.5 2.5 0 1 0 -5 0zM147.5 430 a2.5 2.5 0 1 0 5 0 a2.5 2.5 0 1 0 -5 0zM287.5 430 a2.5 2.5 0 1 0 5 0 a2.5 2.5 0 1 0 -5 0zM127.5 430 a2.5 2.5 0 1 0 5 0 a2.5 2.5 0 1 0 -5 0zM607.5 370 a2.5 2.5 0 1 0 5 0 a2.5 2.5 0 1 0 -5 0zM67.5 470 a2.5 2.5 0 1 0 5 0 a2.5 2.5 0 1 0 -5 0zM107.5 430 a2.5 2.5 0 1 0 5 0 a2.5 2.5 0 1 0 -5 0z" fill="black"></path><path d="M687.5 630 a2.5 2.5 0 1 0 5 0 a2.5 2.5 0 1 0 -5 0zM327.5 650 a2.5 2.5 0 1 0 5 0 a2.5 2.5 0 1 0 -5 0zM247.5 650 a2.5 2.5 0 1 0 5 0 a2.5 2.5 0 1 0 -5 0zM647.5 650 a2.5 2.5 0 1 0 5 0 a2.5 2.5 0 1 0 -5 0zM227.5 670 a2.5 2.5 0 1 0 5 0 a2.5 2.5 0 1 0 -5 0zM187.5 670 a2.5 2.5 0 1 0 5 0 a2.5 2.5 0 1 0 -5 0zM547.5 650 a2.5 2.5 0 1 0 5 0 a2.5 2.5 0 1 0 -5 0zM587.5 610 a2.5 2.5 0 1 0 5 0 a2.5 2.5 0 1 0 -5 0zM307.5 610 a2.5 2.5 0 1 0 5 0 a2.5 2.5 0 1 0 -5 0zM547.5 670 a2.5 2.5 0 1 0 5 0 a2.5 2.5 0 1 0 -5 0z" fill="black"></path><path d="M487.5 390 a2.5 2.5 0 1 0 5 0 a2.5 2.5 0 1 0 -5 0zM87.5 430 a2.5 2.5 0 1 0 5 0 a2.5 2.5 0 1 0 -5 0zM427.5 390 a2.5 2.5 0 1 0 5 0 a2.5 2.5 0 1 0 -5 0z" fill="black"></path><path d="M927.5 650 a2.5 2.5 0 1 0 5 0 a2.5 2.5 0 1 0 -5 0zM527.5 670 a2.5 2.5 0 1 0 5 0 a2.5 2.5 0 1 0 -5 0zM147.5 670 a2.5 2.5 0 1 0 5 0 a2.5 2.5 0 1 0 -5 0zM287.5 690 a2.5 2.5 0 1 0 5 0 a2.5 2.5 0 1 0 -5 0zM667.5 670 a2.5 2.5 0 1 0 5 0 a2.5 2.5 0 1 0 -5 0zM447.5 690 a2.5 2.5 0 1 0 5 0 a2.5 2.5 0 1 0 -5 0zM507.5 670 a2.5 2.5 0 1 0 5 0 a2.5 2.5 0 1 0 -5 0zM887.5 610 a2.5 2.5 0 1 0 5 0 a2.5 2.5 0 1 0 -5 0zM927.5 670 a2.5 2.5 0 1 0 5 0 a2.5 2.5 0 1 0 -5 0zM107.5 650 a2.5 2.5 0 1 0 5 0 a2.5 2.5 0 1 0 -5 0zM747.5 670 a2.5 2.5 0 1 0 5 0 a2.5 2.5 0 1 0 -5 0zM467.5 670 a2.5 2.5 0 1 0 5 0 a2.5 2.5 0 1 0 -5 0zM647.5 690 a2.5 2.5 0 1 0 5 0 a2.5 2.5 0 1 0 -5 0z" fill="black"></path><path d="M327.5 390 a2.5 2.5 0 1 0 5 0 a2.5 2.5 0 1 0 -5 0z" fill="black"></path><path d="M827.5 690 a2.5 2.5 0 1 0 5 0 a2.5 2.5 0 1 0 -5 0zM427.5 690 a2.5 2.5 0 1 0 5 0 a2.5 2.5 0 1 0 -5 0zM687.5 730 a2.5 2.5 0 1 0 5 0 a2.5 2.5 0 1 0 -5 0zM927.5 710 a2.5 2.5 0 1 0 5 0 a2.5 2.5 0 1 0 -5 0zM927.5 690 a2.5 2.5 0 1 0 5 0 a2.5 2.5 0 1 0 -5 0zM367.5 690 a2.5 2.5 0 1 0 5 0 a2.5 2.5 0 1 0 -5 0zM507.5 730 a2.5 2.5 0 1 0 5 0 a2.5 2.5 0 1 0 -5 0zM667.5 710 a2.5 2.5 0 1 0 5 0 a2.5 2.5 0 1 0 -5 0zM327.5 690 a2.5 2.5 0 1 0 5 0 a2.5 2.5 0 1 0 -5 0z" fill="black"></path><path d="M527.5 350 a2.5 2.5 0 1 0 5 0 a2.5 2.5 0 1 0 -5 0zM507.5 370 a2.5 2.5 0 1 0 5 0 a2.5 2.5 0 1 0 -5 0z" fill="black"></path><path d="M707.5 770 a2.5 2.5 0 1 0 5 0 a2.5 2.5 0 1 0 -5 0zM587.5 770 a2.5 2.5 0 1 0 5 0 a2.5 2.5 0 1 0 -5 0zM27.5 690 a2.5 2.5 0 1 0 5 0 a2.5 2.5 0 1 0 -5 0zM727.5 750 a2.5 2.5 0 1 0 5 0 a2.5 2.5 0 1 0 -5 0zM427.5 730 a2.5 2.5 0 1 0 5 0 a2.5 2.5 0 1 0 -5 0zM787.5 770 a2.5 2.5 0 1 0 5 0 a2.5 2.5 0 1 0 -5 0zM267.5 750 a2.5 2.5 0 1 0 5 0 a2.5 2.5 0 1 0 -5 0zM447.5 770 a2.5 2.5 0 1 0 5 0 a2.5 2.5 0 1 0 -5 0zM647.5 770 a2.5 2.5 0 1 0 5 0 a2.5 2.5 0 1 0 -5 0z" fill="black"></path><path d="M527.5 330 a2.5 2.5 0 1 0 5 0 a2.5 2.5 0 1 0 -5 0zM347.5 330 a2.5 2.5 0 1 0 5 0 a2.5 2.5 0 1 0 -5 0zM327.5 330 a2.5 2.5 0 1 0 5 0 a2.5 2.5 0 1 0 -5 0zM487.5 330 a2.5 2.5 0 1 0 5 0 a2.5 2.5 0 1 0 -5 0z" fill="black"></path><path d="M387.5 750 a2.5 2.5 0 1 0 5 0 a2.5 2.5 0 1 0 -5 0zM407.5 770 a2.5 2.5 0 1 0 5 0 a2.5 2.5 0 1 0 -5 0zM327.5 770 a2.5 2.5 0 1 0 5 0 a2.5 2.5 0 1 0 -5 0z" fill="black"></path><path d="M607.5 330 a2.5 2.5 0 1 0 5 0 a2.5 2.5 0 1 0 -5 0zM707.5 330 a2.5 2.5 0 1 0 5 0 a2.5 2.5 0 1 0 -5 0zM627.5 290 a2.5 2.5 0 1 0 5 0 a2.5 2.5 0 1 0 -5 0zM727.5 310 a2.5 2.5 0 1 0 5 0 a2.5 2.5 0 1 0 -5 0zM47.5 370 a2.5 2.5 0 1 0 5 0 a2.5 2.5 0 1 0 -5 0zM587.5 310 a2.5 2.5 0 1 0 5 0 a2.5 2.5 0 1 0 -5 0zM447.5 290 a2.5 2.5 0 1 0 5 0 a2.5 2.5 0 1 0 -5 0zM367.5 290 a2.5 2.5 0 1 0 5 0 a2.5 2.5 0 1 0 -5 0zM327.5 290 a2.5 2.5 0 1 0 5 0 a2.5 2.5 0 1 0 -5 0z" fill="black"></path><path d="M507.5 770 a2.5 2.5 0 1 0 5 0 a2.5 2.5 0 1 0 -5 0zM87.5 730 a2.5 2.5 0 1 0 5 0 a2.5 2.5 0 1 0 -5 0zM307.5 790 a2.5 2.5 0 1 0 5 0 a2.5 2.5 0 1 0 -5 0zM67.5 750 a2.5 2.5 0 1 0 5 0 a2.5 2.5 0 1 0 -5 0zM607.5 790 a2.5 2.5 0 1 0 5 0 a2.5 2.5 0 1 0 -5 0zM427.5 810 a2.5 2.5 0 1 0 5 0 a2.5 2.5 0 1 0 -5 0zM487.5 790 a2.5 2.5 0 1 0 5 0 a2.5 2.5 0 1 0 -5 0z" fill="black"></path><path d="M387.5 250 a2.5 2.5 0 1 0 5 0 a2.5 2.5 0 1 0 -5 0zM207.5 290 a2.5 2.5 0 1 0 5 0 a2.5 2.5 0 1 0 -5 0zM447.5 270 a2.5 2.5 0 1 0 5 0 a2.5 2.5 0 1 0 -5 0zM287.5 270 a2.5 2.5 0 1 0 5 0 a2.5 2.5 0 1 0 -5 0zM267.5 310 a2.5 2.5 0 1 0 5 0 a2.5 2.5 0 1 0 -5 0zM307.5 290 a2.5 2.5 0 1 0 5 0 a2.5 2.5 0 1 0 -5 0z" fill="black"></path><path d="M447.5 830 a2.5 2.5 0 1 0 5 0 a2.5 2.5 0 1 0 -5 0zM387.5 810 a2.5 2.5 0 1 0 5 0 a2.5 2.5 0 1 0 -5 0zM47.5 750 a2.5 2.5 0 1 0 5 0 a2.5 2.5 0 1 0 -5 0z" fill="black"></path><path d="M527.5 850 a2.5 2.5 0 1 0 5 0 a2.5 2.5 0 1 0 -5 0zM167.5 830 a2.5 2.5 0 1 0 5 0 a2.5 2.5 0 1 0 -5 0zM547.5 830 a2.5 2.5 0 1 0 5 0 a2.5 2.5 0 1 0 -5 0zM507.5 830 a2.5 2.5 0 1 0 5 0 a2.5 2.5 0 1 0 -5 0zM487.5 830 a2.5 2.5 0 1 0 5 0 a2.5 2.5 0 1 0 -5 0zM227.5 830 a2.5 2.5 0 1 0 5 0 a2.5 2.5 0 1 0 -5 0zM207.5 830 a2.5 2.5 0 1 0 5 0 a2.5 2.5 0 1 0 -5 0z" fill="black"></path><path d="M187.5 270 a2.5 2.5 0 1 0 5 0 a2.5 2.5 0 1 0 -5 0zM147.5 250 a2.5 2.5 0 1 0 5 0 a2.5 2.5 0 1 0 -5 0zM67.5 310 a2.5 2.5 0 1 0 5 0 a2.5 2.5 0 1 0 -5 0zM127.5 290 a2.5 2.5 0 1 0 5 0 a2.5 2.5 0 1 0 -5 0z" fill="black"></path><path d="M627.5 890 a2.5 2.5 0 1 0 5 0 a2.5 2.5 0 1 0 -5 0zM627.5 910 a2.5 2.5 0 1 0 5 0 a2.5 2.5 0 1 0 -5 0zM527.5 890 a2.5 2.5 0 1 0 5 0 a2.5 2.5 0 1 0 -5 0zM447.5 890 a2.5 2.5 0 1 0 5 0 a2.5 2.5 0 1 0 -5 0zM607.5 850 a2.5 2.5 0 1 0 5 0 a2.5 2.5 0 1 0 -5 0zM627.5 870 a2.5 2.5 0 1 0 5 0 a2.5 2.5 0 1 0 -5 0zM427.5 910 a2.5 2.5 0 1 0 5 0 a2.5 2.5 0 1 0 -5 0zM147.5 830 a2.5 2.5 0 1 0 5 0 a2.5 2.5 0 1 0 -5 0zM487.5 890 a2.5 2.5 0 1 0 5 0 a2.5 2.5 0 1 0 -5 0z" fill="black"></path><path d="M707.5 250 a2.5 2.5 0 1 0 5 0 a2.5 2.5 0 1 0 -5 0zM427.5 210 a2.5 2.5 0 1 0 5 0 a2.5 2.5 0 1 0 -5 0zM287.5 210 a2.5 2.5 0 1 0 5 0 a2.5 2.5 0 1 0 -5 0zM667.5 270 a2.5 2.5 0 1 0 5 0 a2.5 2.5 0 1 0 -5 0zM407.5 190 a2.5 2.5 0 1 0 5 0 a2.5 2.5 0 1 0 -5 0zM507.5 270 a2.5 2.5 0 1 0 5 0 a2.5 2.5 0 1 0 -5 0zM607.5 270 a2.5 2.5 0 1 0 5 0 a2.5 2.5 0 1 0 -5 0zM547.5 230 a2.5 2.5 0 1 0 5 0 a2.5 2.5 0 1 0 -5 0zM227.5 270 a2.5 2.5 0 1 0 5 0 a2.5 2.5 0 1 0 -5 0zM247.5 230 a2.5 2.5 0 1 0 5 0 a2.5 2.5 0 1 0 -5 0z" fill="black"></path><path d="M327.5 890 a2.5 2.5 0 1 0 5 0 a2.5 2.5 0 1 0 -5 0zM227.5 890 a2.5 2.5 0 1 0 5 0 a2.5 2.5 0 1 0 -5 0zM107.5 830 a2.5 2.5 0 1 0 5 0 a2.5 2.5 0 1 0 -5 0zM147.5 890 a2.5 2.5 0 1 0 5 0 a2.5 2.5 0 1 0 -5 0zM87.5 850 a2.5 2.5 0 1 0 5 0 a2.5 2.5 0 1 0 -5 0z" fill="black"></path><path d="M27.5 290 a2.5 2.5 0 1 0 5 0 a2.5 2.5 0 1 0 -5 0zM67.5 250 a2.5 2.5 0 1 0 5 0 a2.5 2.5 0 1 0 -5 0z" fill="black"></path></mask></defs></svg>